RBDS026runT25_grf
version=1
nRows=21
nColumns=19
inDegrees=no
endheader
time	ground_force_r_vx	ground_force_r_vy	ground_force_r_vz	ground_force_r_px	ground_force_r_py	ground_force_r_pz	ground_force_r_mx	ground_force_r_my	ground_force_r_mz	ground_force_l_vx	ground_force_l_vy	ground_force_l_vz	ground_force_l_px	ground_force_l_py	ground_force_l_pz	ground_force_l_mx	ground_force_l_my	ground_force_l_mz
     14.99900000	      0.00000000	      0.00000000	      0.00000000	      0.00000000	      0.00000000	      0.00000000	      0.00000000	      0.00000000	      0.00000000	    140.07322357	   1001.15303537	     31.67704599	      1.96925882	      0.00000000	      0.94714201	     -0.00000000	      9.29135604	     -0.00000000
     15.00000000	      0.00000000	      0.00000000	      0.00000000	      0.00000000	      0.00000000	      0.00000000	      0.00000000	      0.00000000	      0.00000000	    142.03144505	    988.22571304	     30.22083502	      1.96711682	      0.00000000	      0.94731320	     -0.00000000	      9.15977200	     -0.00000000
     15.00100000	      0.00000000	      0.00000000	      0.00000000	      0.00000000	      0.00000000	      0.00000000	      0.00000000	      0.00000000	      0.00000000	    143.68838521	    975.15697949	     28.82365081	      1.96498622	      0.00000000	      0.94749570	     -0.00000000	      9.02659417	     -0.00000000
     15.00200000	      0.00000000	      0.00000000	      0.00000000	      0.00000000	      0.00000000	      0.00000000	      0.00000000	      0.00000000	      0.00000000	    145.34532537	    962.08824595	     27.42646660	      1.96285562	      0.00000000	      0.94767821	     -0.00000000	      8.89341633	     -0.00000000
     15.00300000	      0.00000000	      0.00000000	      0.00000000	      0.00000000	      0.00000000	      0.00000000	      0.00000000	      0.00000000	      0.00000000	    147.00226554	    949.01951240	     26.02928239	      1.96072503	      0.00000000	      0.94786071	     -0.00000000	      8.76023850	     -0.00000000
     15.00400000	      0.00000000	      0.00000000	      0.00000000	      0.00000000	      0.00000000	      0.00000000	      0.00000000	      0.00000000	      0.00000000	    148.44234614	    935.87388710	     24.68449090	      1.95860644	      0.00000000	      0.94804835	     -0.00000000	      8.62679383	     -0.00000000
     15.00500000	      0.00000000	      0.00000000	      0.00000000	      0.00000000	      0.00000000	      0.00000000	      0.00000000	      0.00000000	      0.00000000	    149.77399696	    922.68981593	     23.36589576	      1.95649386	      0.00000000	      0.94823857	     -0.00000000	      8.49321574	     -0.00000000
     15.00600000	      0.00000000	      0.00000000	      0.00000000	      0.00000000	      0.00000000	      0.00000000	      0.00000000	      0.00000000	      0.00000000	    151.10564778	    909.50574476	     22.04730063	      1.95438128	      0.00000000	      0.94842879	     -0.00000000	      8.35963765	     -0.00000000
     15.00700000	      0.00000000	      0.00000000	      0.00000000	      0.00000000	      0.00000000	      0.00000000	      0.00000000	      0.00000000	      0.00000000	    152.32277339	    896.29296685	     20.76058927	      1.95227661	      0.00000000	      0.94862031	     -0.00000000	      8.22629540	     -0.00000000
     15.00800000	      0.00000000	      0.00000000	      0.00000000	      0.00000000	      0.00000000	      0.00000000	      0.00000000	      0.00000000	      0.00000000	    153.31084862	    883.02277546	     19.53764545	      1.95018776	      0.00000000	      0.94881443	     -0.00000000	      8.09342482	     -0.00000000
     15.00900000	      0.00000000	      0.00000000	      0.00000000	      0.00000000	      0.00000000	      0.00000000	      0.00000000	      0.00000000	      0.00000000	    154.29892384	    869.75258407	     18.31470163	      1.94809892	      0.00000000	      0.94900856	     -0.00000000	      7.96055425	     -0.00000000
     15.01000000	      0.00000000	      0.00000000	      0.00000000	      0.00000000	      0.00000000	      0.00000000	      0.00000000	      0.00000000	      0.00000000	    155.28699906	    856.48239268	     17.09175782	      1.94601007	      0.00000000	      0.94920269	     -0.00000000	      7.82768367	     -0.00000000
     15.01100000	      0.00000000	      0.00000000	      0.00000000	      0.00000000	      0.00000000	      0.00000000	      0.00000000	      0.00000000	      0.00000000	    155.91945568	    843.15875818	     15.97860649	      1.94394955	      0.00000000	      0.94939680	     -0.00000000	      7.69649659	     -0.00000000
     15.01200000	      0.00000000	      0.00000000	      0.00000000	      0.00000000	      0.00000000	      0.00000000	      0.00000000	      0.00000000	      0.00000000	    156.55191230	    829.83512368	     14.86545516	      1.94188903	      0.00000000	      0.94959091	     -0.00000000	      7.56530951	     -0.00000000
     15.01300000	      0.00000000	      0.00000000	      0.00000000	      0.00000000	      0.00000000	      0.00000000	      0.00000000	      0.00000000	      0.00000000	    157.18436892	    816.51148918	     13.75230384	      1.93982852	      0.00000000	      0.94978502	     -0.00000000	      7.43412244	     -0.00000000
     15.01400000	      0.00000000	      0.00000000	      0.00000000	      0.00000000	      0.00000000	      0.00000000	      0.00000000	      0.00000000	      0.00000000	    157.57608617	    803.17637073	     12.71962693	      1.93778906	      0.00000000	      0.94997649	     -0.00000000	      7.30459283	     -0.00000000
     15.01500000	      0.00000000	      0.00000000	      0.00000000	      0.00000000	      0.00000000	      0.00000000	      0.00000000	      0.00000000	      0.00000000	    157.84743373	    789.83551029	     11.72718723	      1.93576014	      0.00000000	      0.95016664	     -0.00000000	      7.17589196	     -0.00000000
     15.01600000	      0.00000000	      0.00000000	      0.00000000	      0.00000000	      0.00000000	      0.00000000	      0.00000000	      0.00000000	      0.00000000	    158.11878129	    776.49464985	     10.73474753	      1.93373121	      0.00000000	      0.95035678	     -0.00000000	      7.04719110	     -0.00000000
     15.01700000	      0.00000000	      0.00000000	      0.00000000	      0.00000000	      0.00000000	      0.00000000	      0.00000000	      0.00000000	      0.00000000	    158.27014575	    763.16125155	      9.78505257	      1.93171342	      0.00000000	      0.95054433	     -0.00000000	      6.91951714	     -0.00000000
     15.01800000	      0.00000000	      0.00000000	      0.00000000	      0.00000000	      0.00000000	      0.00000000	      0.00000000	      0.00000000	      0.00000000	    158.18154400	    749.84277751	      8.92084709	      1.92971789	      0.00000000	      0.95072665	     -0.00000000	      6.79389700	     -0.00000000
     15.01900000	      0.00000000	      0.00000000	      0.00000000	      0.00000000	      0.00000000	      0.00000000	      0.00000000	      0.00000000	      0.00000000	    158.09294226	    736.52430348	      8.05664161	      1.92772236	      0.00000000	      0.95090897	     -0.00000000	      6.66827687	     -0.00000000
